# X Bows Quiver Model
o Quiver
v -2.828428 1.735425 -2.549999
v 1.414214 5.978065 -2.552038
v 1.414214 5.978786 -1.052038
v -2.828428 1.736146 -1.049999
v 2.828428 4.564572 -1.051358
v -1.414213 0.321933 -1.049319
v 2.828428 4.563851 -2.551359
v -1.414213 0.321212 -2.549319
v 1.070520 4.927025 -3.047700
v 1.777627 5.634132 -3.048040
v 1.777627 5.634373 -2.548040
v 1.070520 4.927266 -2.547700
v 1.731981 4.245843 -3.051206
v 2.439088 4.952950 -3.051546
v 2.439088 4.953190 -2.551546
v 1.731981 4.246083 -2.551206
v 2.121320 3.856961 -2.100322
v 2.474874 3.503408 -2.100152
v 3.181981 4.210515 -2.100492
v 2.828428 4.564068 -2.100662
v 2.119278 3.859266 -1.551019
v 2.472832 3.505713 -1.550849
v 3.179939 4.212820 -1.551189
v 2.826385 4.566373 -1.551359
v 0.367303 5.611003 -2.048029
v 0.720857 5.257450 -2.047859
v 1.427963 5.964557 -2.048199
v 1.074409 6.318110 -2.048369
v 0.353554 5.624984 -1.570357
v 0.707106 5.271431 -1.570187
v 1.414214 5.978538 -1.570527
v 1.060661 6.332090 -1.570697
v 1.767767 5.624753 -2.048035
v 1.414214 5.978307 -2.048205
v 1.767767 6.331861 -2.048375
v 2.121320 5.978307 -2.048205
v 1.767767 5.624513 -2.548035
v 2.121320 5.978066 -2.548205
v 2.439088 4.953430 -2.051546
v 2.792642 5.306744 -2.551716
v 2.792642 5.306984 -2.051716
v 2.472832 4.919926 -1.551529
v 3.179940 4.919926 -1.551529
v 2.826385 5.273479 -1.551699
v 2.472832 4.920166 -1.051529
v 2.826385 5.273719 -1.051699
v 1.884178 3.620322 -1.050904
v 0.469964 5.034535 -1.051584
v 0.469964 5.033814 -2.551584
v 1.884178 3.619601 -2.550905
vt 0.214438 0.200138
vt 0.214438 0.800048
vt 0.000097 0.800048
vt 0.000098 0.200138
vt 1.000050 0.200138
vt 1.000050 0.800048
vt 0.714189 0.800048
vt 0.714189 0.200139
vt 0.499908 0.800048
vt 0.499908 0.200138
vt 0.214438 -0.000180
vt 0.499908 -0.000180
vt 0.499908 0.999993
vt 0.214438 0.999992
vt 0.214960 0.866446
vt 0.214959 0.733196
vt 0.285832 0.733196
vt 0.285832 0.866446
vt 0.356705 0.733016
vt 0.214960 0.733016
vt 0.214959 0.666390
vt 0.356705 0.666391
vt 0.356897 0.799821
vt 0.427770 0.799821
vt 0.427770 0.933072
vt 0.356897 0.933072
vt 0.427961 0.666390
vt 0.498834 0.666390
vt 0.498834 0.799641
vt 0.427961 0.799641
vt 0.356897 0.666390
vt 0.427770 0.666391
vt 0.427770 0.799641
vt 0.356897 0.799641
vt 0.356705 0.866626
vt 0.356705 0.933252
vt 0.214959 0.933252
vt 0.214959 0.866626
vt 0.427961 0.799821
vt 0.498834 0.799821
vt 0.498834 0.866446
vt 0.427961 0.866446
vt 0.427769 0.933252
vt 0.427769 0.999877
vt 0.356897 0.999877
vt 0.356897 0.933252
vt 0.427961 0.866626
vt 0.498834 0.866626
vt 0.498834 0.933252
vt 0.427961 0.933252
vt 0.569898 0.733016
vt 0.499025 0.733016
vt 0.499025 0.666390
vt 0.569898 0.666390
vt 0.285832 1.000057
vt 0.214959 1.000057
vt 0.214959 0.933431
vt 0.285832 0.933431
vt 0.785590 0.199956
vt 0.500221 0.199955
vt 0.500221 0.000098
vt 0.785590 0.000098
vn -0.707107 0.707107 -0.000340
vn -0.000000 0.000481 1.000000
vn 0.707107 -0.707107 0.000340
vn -0.000000 -0.000481 -1.000000
vn -0.707107 -0.707107 0.000340
vn 0.707107 0.707107 -0.000340
s 0
f 4/4/1 3/3/1 2/2/1 1/1/1
f 6/8/2 5/7/2 3/6/2 4/5/2
f 8/10/3 7/9/3 5/7/3 6/8/3
f 1/1/4 2/2/4 7/9/4 8/10/4
f 1/1/5 8/10/5 6/12/5 4/11/5
f 7/9/6 2/2/6 3/14/6 5/13/6
f 12/18/1 11/17/1 10/16/1 9/15/1
f 16/22/1 15/21/1 14/20/1 13/19/1
f 20/26/4 19/25/4 18/24/4 17/23/4
f 24/30/4 23/29/4 22/28/4 21/27/4
f 28/34/4 27/33/4 26/32/4 25/31/4
f 32/38/4 31/37/4 30/36/4 29/35/4
f 36/42/2 35/41/2 34/40/2 33/39/2
f 36/46/1 38/45/1 37/44/1 33/43/1
f 41/50/1 40/49/1 15/48/1 39/47/1
f 44/54/4 43/53/4 24/52/4 42/51/4
f 44/58/3 46/57/3 45/56/3 42/55/3
f 50/62/6 49/61/6 48/60/6 47/59/6
