# Blender v3.3.0 OBJ File: 'arrow2.blend'
# www.blender.org
mtllib arrow2.mtl
o arrow2
v -0.007500 -0.037500 -0.112500
v -0.007500 -0.022500 -0.180000
v -0.007500 -0.022500 -0.157500
v -0.007500 0.007500 0.180000
v -0.007500 0.007500 0.090000
v -0.022500 -0.007500 -0.112500
v -0.037500 -0.007500 -0.112500
v -0.037500 0.007500 -0.180000
v -0.037500 -0.007500 -0.180000
v 0.022500 0.007500 -0.157500
v -0.007500 0.037500 -0.112500
v 0.007500 -0.022500 -0.157500
v 0.007500 -0.022500 0.090000
v 0.007500 -0.022500 -0.112500
v 0.007500 -0.007500 0.180000
v 0.007500 -0.007500 0.157500
v 0.022500 -0.007500 0.157500
v 0.022500 -0.007500 0.090000
v 0.022500 -0.007500 -0.090000
v 0.022500 0.007500 -0.090000
v 0.037500 -0.007500 -0.112500
v 0.037500 0.007500 -0.112500
v -0.022500 0.007500 -0.157500
v 0.007500 -0.007500 -0.180000
v 0.007500 0.007500 -0.180000
v 0.037500 0.007500 -0.180000
v 0.007500 0.022500 0.157500
v 0.007500 0.022500 -0.157500
v 0.007500 -0.037500 -0.112500
v -0.007500 -0.022500 0.157500
v 0.007500 -0.022500 0.157500
v -0.007500 -0.022500 -0.090000
v 0.007500 -0.022500 -0.090000
v -0.022500 0.007500 0.157500
v 0.022500 0.007500 0.157500
v -0.022500 -0.007500 -0.090000
v -0.007500 -0.007500 -0.090000
v 0.007500 -0.007500 -0.090000
v -0.037500 0.007500 -0.112500
v 0.022500 0.007500 -0.112500
v -0.007500 0.007500 0.157500
v -0.007500 0.022500 0.157500
v -0.007500 0.022500 -0.090000
v -0.007500 0.022500 -0.112500
v 0.007500 0.022500 -0.112500
v 0.007500 -0.022500 -0.180000
v -0.007500 -0.007500 -0.157500
v 0.007500 -0.007500 -0.157500
v 0.007500 -0.007500 0.090000
v 0.022500 0.007500 0.090000
v -0.022500 -0.007500 -0.180000
v 0.022500 -0.007500 -0.180000
v 0.022500 0.007500 -0.180000
v 0.007500 0.022500 0.090000
v 0.007500 0.007500 0.090000
v -0.007500 0.007500 -0.157500
v 0.007500 0.037500 -0.180000
v -0.007500 -0.037500 -0.180000
v 0.007500 -0.037500 -0.180000
v -0.007500 -0.022500 0.090000
v -0.007500 -0.022500 -0.112500
v -0.007500 -0.007500 0.180000
v -0.007500 -0.007500 0.157500
v -0.022500 -0.007500 0.157500
v -0.022500 -0.007500 0.090000
v -0.007500 -0.007500 0.090000
v 0.022500 -0.007500 -0.112500
v -0.022500 -0.007500 -0.157500
v -0.007500 -0.007500 -0.180000
v 0.022500 -0.007500 -0.157500
v 0.037500 -0.007500 -0.180000
v -0.007500 0.022500 -0.157500
v -0.007500 0.022500 -0.180000
v 0.007500 0.022500 -0.180000
v 0.007500 0.007500 0.180000
v 0.007500 0.007500 0.157500
v -0.022500 0.007500 0.090000
v 0.007500 0.007500 -0.090000
v -0.007500 0.007500 -0.090000
v -0.022500 0.007500 -0.090000
v -0.022500 0.007500 -0.112500
v -0.022500 0.007500 -0.180000
v 0.007500 0.007500 -0.157500
v -0.007500 0.007500 -0.180000
v -0.007500 0.022500 0.090000
v 0.007500 0.022500 -0.090000
v 0.007500 0.037500 -0.112500
v -0.007500 0.037500 -0.180000
vt 0.533333 0.533333
vt 0.000000 0.600000
vt 0.533333 0.600000
vt 0.466667 0.866667
vt 0.533333 0.800000
vt 0.466667 0.800000
vt 0.533333 0.866667
vt 0.600000 0.800000
vt 0.533333 0.800000
vt 0.733333 0.400000
vt 0.800000 0.200000
vt 0.733333 0.200000
vt 0.400000 0.733333
vt 0.200000 0.800000
vt 0.400000 0.800000
vt 0.466667 0.666667
vt 0.400000 0.733333
vt 0.400000 0.666667
vt 0.733333 0.866667
vt 0.800000 0.800000
vt 0.733333 0.800000
vt 0.866667 0.333333
vt 0.933333 0.266667
vt 0.866667 0.266667
vt 0.066667 0.533333
vt 0.133333 0.000000
vt 0.066667 0.000000
vt 0.200000 0.466667
vt 0.200000 0.533333
vt 0.133333 0.533333
vt 0.666667 0.866667
vt 0.600000 0.933333
vt 0.600000 0.866667
vt 0.800000 0.333333
vt 0.866667 0.266667
vt 0.800000 0.266667
vt 0.200000 0.866667
vt 0.000000 0.800000
vt 0.000000 0.866667
vt 0.866667 0.800000
vt 0.800000 0.866667
vt 0.800000 0.800000
vt 0.200000 0.733333
vt 0.000000 0.800000
vt 0.200000 0.800000
vt 0.600000 0.733333
vt 0.400000 0.800000
vt 0.400000 0.733333
vt 0.666667 0.866667
vt 0.733333 0.800000
vt 0.666667 0.800000
vt 0.733333 0.200000
vt 0.666667 0.266667
vt 0.666667 0.200000
vt 0.733333 0.200000
vt 0.666667 0.000000
vt 0.733333 0.000000
vt 0.733333 0.666667
vt 0.666667 0.733333
vt 0.666667 0.666667
vt 0.466667 0.333333
vt 0.466667 0.400000
vt 0.333333 0.333333
vt 0.733333 0.200000
vt 0.800000 0.000000
vt 0.800000 0.200000
vt 0.533333 0.733333
vt 0.600000 0.533333
vt 0.533333 0.533333
vt 0.466667 0.866667
vt 0.400000 0.933333
vt 0.400000 0.866667
vt 0.666667 0.266667
vt 0.600000 0.266667
vt 0.600000 0.200000
vt 0.333333 0.066667
vt 0.400000 0.066667
vt 0.400000 0.133333
vt 0.200000 0.866667
vt 0.133333 0.933333
vt 0.133333 0.866667
vt 0.000000 0.533333
vt 0.066667 0.000000
vt 0.066667 0.533333
vt 0.400000 0.866667
vt 0.466667 0.800000
vt 0.400000 0.800000
vt 0.466667 0.200000
vt 0.533333 0.200000
vt 0.466667 0.066667
vt 0.266667 0.866667
vt 0.200000 0.933333
vt 0.200000 0.866667
vt 0.866667 0.400000
vt 0.933333 0.333333
vt 0.866667 0.333333
vt 0.400000 0.866667
vt 0.200000 0.800000
vt 0.400000 0.800000
vt 0.333333 0.933333
vt 0.400000 0.866667
vt 0.333333 0.866667
vt 0.066667 0.866667
vt 0.000000 0.933333
vt 0.000000 0.866667
vt 0.800000 0.400000
vt 0.733333 0.466667
vt 0.733333 0.400000
vt 0.733333 0.466667
vt 0.666667 0.266667
vt 0.733333 0.266667
vt 0.200000 0.733333
vt 0.000000 0.666667
vt 0.200000 0.666667
vt 0.866667 0.333333
vt 0.800000 0.400000
vt 0.800000 0.333333
vt 0.333333 0.866667
vt 0.266667 0.933333
vt 0.266667 0.866667
vt 0.533333 0.600000
vt 0.000000 0.666667
vt 0.000000 0.600000
vt 0.866667 0.533333
vt 0.800000 0.600000
vt 0.800000 0.533333
vt 0.600000 0.466667
vt 0.600000 0.533333
vt 0.666667 0.533333
vt 0.466667 0.933333
vt 0.533333 0.866667
vt 0.466667 0.866667
vt 0.666667 0.666667
vt 0.733333 0.466667
vt 0.666667 0.466667
vt 0.866667 0.200000
vt 0.933333 0.133333
vt 0.866667 0.133333
vt 0.800000 0.666667
vt 0.733333 0.733333
vt 0.733333 0.666667
vt 0.733333 0.666667
vt 0.800000 0.466667
vt 0.800000 0.666667
vt 0.866667 0.000000
vt 0.800000 0.066667
vt 0.800000 0.000000
vt 0.800000 0.733333
vt 0.600000 0.800000
vt 0.800000 0.800000
vt 0.933333 0.000000
vt 0.866667 0.066667
vt 0.866667 0.000000
vt 0.866667 0.200000
vt 0.800000 0.200000
vt 0.400000 0.733333
vt 0.200000 0.666667
vt 0.400000 0.666667
vt 0.800000 0.200000
vt 0.866667 0.133333
vt 0.800000 0.133333
vt 0.133333 0.866667
vt 0.066667 0.933333
vt 0.066667 0.866667
vt 0.800000 0.133333
vt 0.866667 0.066667
vt 0.800000 0.066667
vt 0.800000 0.466667
vt 0.866667 0.400000
vt 0.800000 0.400000
vt 0.133333 0.133333
vt 0.133333 0.200000
vt 0.200000 0.200000
vt 0.466667 0.466667
vt 0.533333 0.466667
vt 0.533333 0.400000
vt 0.666667 0.733333
vt 0.600000 0.533333
vt 0.600000 0.733333
vt 0.800000 0.533333
vt 0.866667 0.466667
vt 0.800000 0.466667
vt 0.866667 0.733333
vt 0.800000 0.800000
vt 0.800000 0.733333
vt 0.933333 0.066667
vt 0.866667 0.133333
vt 0.866667 0.066667
vt 0.533333 0.933333
vt 0.600000 0.866667
vt 0.533333 0.866667
vt 0.800000 0.733333
vt 0.866667 0.666667
vt 0.800000 0.666667
vt 0.800000 0.666667
vt 0.866667 0.600000
vt 0.800000 0.600000
vt 0.600000 0.866667
vt 0.666667 0.800000
vt 0.600000 0.800000
vt 0.866667 0.266667
vt 0.933333 0.200000
vt 0.866667 0.200000
vt 0.933333 0.400000
vt 0.866667 0.466667
vt 0.866667 0.400000
vt 0.533333 0.666667
vt 0.466667 0.733333
vt 0.466667 0.666667
vt 0.000000 0.533333
vt 0.533333 0.866667
vt 0.600000 0.866667
vt 0.800000 0.400000
vt 0.200000 0.733333
vt 0.466667 0.733333
vt 0.800000 0.866667
vt 0.933333 0.333333
vt 0.133333 0.533333
vt 0.133333 0.333333
vt 0.200000 0.333333
vt 0.200000 0.266667
vt 0.266667 0.266667
vt 0.266667 0.466667
vt 0.666667 0.933333
vt 0.866667 0.333333
vt 0.200000 0.800000
vt 0.866667 0.866667
vt 0.000000 0.733333
vt 0.600000 0.800000
vt 0.733333 0.866667
vt 0.733333 0.266667
vt 0.666667 0.200000
vt 0.733333 0.733333
vt 0.266667 0.400000
vt 0.266667 0.333333
vt 0.333333 0.266667
vt 0.533333 0.266667
vt 0.533333 0.333333
vt 0.733333 0.000000
vt 0.600000 0.733333
vt 0.466667 0.933333
vt 0.533333 0.200000
vt 0.600000 0.066667
vt 0.533333 0.000000
vt 0.600000 0.000000
vt 0.666667 0.066667
vt 0.200000 0.133333
vt 0.200000 0.066667
vt 0.133333 0.066667
vt 0.133333 0.000000
vt 0.333333 0.000000
vt 0.200000 0.933333
vt 0.000000 0.000000
vt 0.466667 0.866667
vt 0.533333 0.000000
vt 0.466667 0.000000
vt 0.400000 0.066667
vt 0.400000 0.266667
vt 0.466667 0.266667
vt 0.266667 0.933333
vt 0.933333 0.400000
vt 0.200000 0.866667
vt 0.400000 0.933333
vt 0.066667 0.933333
vt 0.800000 0.466667
vt 0.666667 0.466667
vt 0.000000 0.733333
vt 0.866667 0.400000
vt 0.333333 0.933333
vt 0.533333 0.666667
vt 0.866667 0.600000
vt 0.666667 0.333333
vt 0.600000 0.333333
vt 0.600000 0.266667
vt 0.533333 0.266667
vt 0.533333 0.466667
vt 0.533333 0.933333
vt 0.733333 0.666667
vt 0.933333 0.200000
vt 0.800000 0.733333
vt 0.733333 0.466667
vt 0.866667 0.066667
vt 0.600000 0.733333
vt 0.933333 0.066667
vt 0.200000 0.733333
vt 0.866667 0.200000
vt 0.133333 0.933333
vt 0.866667 0.133333
vt 0.866667 0.466667
vt 0.200000 0.266667
vt 0.333333 0.200000
vt 0.400000 0.266667
vt 0.400000 0.200000
vt 0.333333 0.133333
vt 0.333333 0.400000
vt 0.333333 0.466667
vt 0.266667 0.466667
vt 0.266667 0.533333
vt 0.466667 0.533333
vt 0.666667 0.533333
vt 0.866667 0.533333
vt 0.866667 0.800000
vt 0.933333 0.133333
vt 0.600000 0.933333
vt 0.866667 0.733333
vt 0.866667 0.666667
vt 0.666667 0.866667
vt 0.933333 0.266667
vt 0.933333 0.466667
vt 0.533333 0.733333
vn -1.0000 0.0000 0.0000
vn 0.0000 -1.0000 0.0000
vn 0.0000 0.0000 -1.0000
vn 0.0000 1.0000 0.0000
vn 0.0000 0.0000 1.0000
vn 1.0000 0.0000 0.0000
usemtl arrow2_Material
s off
f 37/1/1 5/2/1 79/3/1
f 63/4/2 15/5/2 62/6/2
f 85/7/3 55/8/3 5/9/3
f 49/10/2 17/11/2 16/12/2
f 60/13/1 63/14/1 66/15/1
f 86/16/4 44/17/4 43/18/4
f 56/19/1 69/20/1 47/21/1
f 53/22/3 71/23/3 52/24/3
f 37/25/2 49/26/2 66/27/2
f 23/28/4 82/29/4 8/30/4
f 17/31/5 76/32/5 16/33/5
f 69/34/2 48/35/2 47/36/2
f 8/37/1 7/38/1 39/39/1
f 67/40/6 20/41/6 19/42/6
f 5/43/1 42/44/1 85/45/1
f 18/46/6 35/47/6 17/48/6
f 80/49/1 6/50/1 36/51/1
f 33/52/5 37/53/5 32/54/5
f 54/55/4 42/56/4 27/57/4
f 12/58/4 2/59/4 3/60/4
f 12/61/6 48/62/6 14/63/6
f 88/64/4 87/65/4 57/66/4
f 60/67/2 31/68/2 30/69/2
f 6/70/5 39/71/5 7/72/5
f 26/73/4 53/74/4 10/75/4
f 28/76/6 74/77/6 57/78/6
f 29/79/5 61/80/5 1/81/5
f 79/82/4 55/83/4 78/84/4
f 72/85/3 83/86/3 56/87/3
f 68/88/2 47/89/2 6/90/2
f 63/91/5 34/92/5 64/93/5
f 8/94/3 51/95/3 9/96/3
f 26/97/6 21/98/6 71/99/6
f 23/100/3 47/101/3 68/102/3
f 51/103/6 23/104/6 68/105/6
f 76/106/5 42/107/5 41/108/5
f 5/109/4 34/110/4 41/111/4
f 49/112/6 31/113/6 13/114/6
f 83/115/4 84/116/4 56/117/4
f 21/118/5 40/119/5 67/120/5
f 38/121/6 55/122/6 49/123/6
f 31/124/5 63/125/5 30/126/5
f 70/127/2 52/128/2 71/129/2
f 83/130/3 70/131/3 48/132/3
f 65/133/2 63/134/2 64/135/2
f 2/136/3 59/137/3 58/138/3
f 78/139/5 43/140/5 79/141/5
f 55/142/4 35/143/4 50/144/4
f 45/145/5 11/146/5 44/147/5
f 65/148/1 34/149/1 77/150/1
f 15/151/5 4/152/5 62/153/5
f 47/36/3 12/154/3 3/155/3
f 54/156/6 76/157/6 55/158/6
f 66/159/3 13/160/3 60/161/3
f 24/162/6 83/163/6 48/164/6
f 73/165/2 28/166/2 72/167/2
f 61/168/2 33/169/2 32/170/2
f 79/171/1 43/172/1 44/173/1
f 3/174/1 2/175/1 58/176/1
f 59/177/2 1/178/2 58/179/2
f 88/180/3 74/181/3 73/182/3
f 16/183/6 75/184/6 15/185/6
f 37/186/5 80/187/5 36/188/5
f 55/189/3 18/190/3 49/191/3
f 10/192/1 52/193/1 70/194/1
f 4/195/1 63/196/1 62/197/1
f 84/198/3 24/199/3 69/200/3
f 77/201/3 66/202/3 65/203/3
f 19/204/5 78/205/5 38/206/5
f 75/207/4 41/208/4 4/209/4
f 37/1/1 66/210/1 5/2/1
f 63/4/2 16/211/2 15/5/2
f 85/7/3 54/212/3 55/8/3
f 49/10/2 18/213/2 17/11/2
f 60/13/1 30/214/1 63/14/1
f 86/16/4 45/215/4 44/17/4
f 56/19/1 84/216/1 69/20/1
f 53/22/3 26/217/3 71/23/3
f 37/25/2 38/218/2 49/26/2
f 8/30/4 39/219/4 23/28/4
f 39/219/4 81/220/4 23/28/4
f 81/220/4 80/221/4 79/222/4
f 79/222/4 56/223/4 81/220/4
f 56/223/4 23/28/4 81/220/4
f 17/31/5 35/224/5 76/32/5
f 69/34/2 24/225/2 48/35/2
f 8/37/1 9/226/1 7/38/1
f 67/40/6 40/227/6 20/41/6
f 5/43/1 41/228/1 42/44/1
f 18/46/6 50/229/6 35/47/6
f 80/49/1 81/230/1 6/50/1
f 33/52/5 38/231/5 37/53/5
f 54/55/4 85/232/4 42/56/4
f 12/58/4 46/233/4 2/59/4
f 48/62/6 38/234/6 14/63/6
f 38/234/6 33/235/6 14/63/6
f 14/63/6 29/236/6 12/61/6
f 29/236/6 59/237/6 12/61/6
f 59/237/6 46/238/6 12/61/6
f 88/64/4 11/239/4 87/65/4
f 60/67/2 13/240/2 31/68/2
f 6/70/5 81/241/5 39/71/5
f 10/75/4 83/242/4 40/243/4
f 83/242/4 78/244/4 40/243/4
f 78/244/4 20/245/4 40/243/4
f 40/243/4 22/246/4 10/75/4
f 22/246/4 26/73/4 10/75/4
f 57/78/6 87/247/6 28/76/6
f 87/247/6 45/248/6 28/76/6
f 45/248/6 86/249/6 78/250/6
f 78/250/6 83/251/6 45/248/6
f 83/251/6 28/76/6 45/248/6
f 29/79/5 14/252/5 61/80/5
f 79/82/4 5/253/4 55/83/4
f 72/85/3 28/254/3 83/86/3
f 47/89/2 37/255/2 6/90/2
f 37/255/2 36/256/2 6/90/2
f 6/90/2 7/257/2 68/88/2
f 7/257/2 9/258/2 68/88/2
f 9/258/2 51/259/2 68/88/2
f 63/91/5 41/260/5 34/92/5
f 8/94/3 82/261/3 51/95/3
f 26/97/6 22/262/6 21/98/6
f 23/100/3 56/263/3 47/101/3
f 51/103/6 82/264/6 23/104/6
f 76/106/5 27/265/5 42/107/5
f 5/109/4 77/266/4 34/110/4
f 49/112/6 16/267/6 31/113/6
f 83/115/4 25/268/4 84/116/4
f 21/118/5 22/269/5 40/119/5
f 38/121/6 78/270/6 55/122/6
f 31/124/5 16/271/5 63/125/5
f 71/129/2 21/272/2 70/127/2
f 21/272/2 67/273/2 70/127/2
f 67/273/2 19/274/2 38/275/2
f 38/275/2 48/276/2 67/273/2
f 48/276/2 70/127/2 67/273/2
f 83/130/3 10/277/3 70/131/3
f 65/133/2 66/278/2 63/134/2
f 2/136/3 46/279/3 59/137/3
f 78/139/5 86/280/5 43/140/5
f 55/142/4 76/281/4 35/143/4
f 45/145/5 87/282/5 11/146/5
f 65/148/1 64/283/1 34/149/1
f 15/151/5 75/284/5 4/152/5
f 47/36/3 48/35/3 12/154/3
f 54/156/6 27/285/6 76/157/6
f 66/159/3 49/286/3 13/160/3
f 24/162/6 25/287/6 83/163/6
f 73/165/2 74/288/2 28/166/2
f 61/168/2 14/289/2 33/169/2
f 44/173/1 11/290/1 72/291/1
f 11/290/1 88/292/1 72/291/1
f 88/292/1 73/293/1 72/291/1
f 72/291/1 56/294/1 44/173/1
f 56/294/1 79/171/1 44/173/1
f 58/176/1 1/295/1 3/174/1
f 1/295/1 61/296/1 3/174/1
f 61/296/1 32/297/1 37/298/1
f 37/298/1 47/299/1 61/296/1
f 47/299/1 3/174/1 61/296/1
f 59/177/2 29/300/2 1/178/2
f 88/180/3 57/301/3 74/181/3
f 16/183/6 76/302/6 75/184/6
f 37/186/5 79/303/5 80/187/5
f 55/189/3 50/304/3 18/190/3
f 10/192/1 53/305/1 52/193/1
f 4/195/1 41/306/1 63/196/1
f 84/198/3 25/307/3 24/199/3
f 77/201/3 5/308/3 66/202/3
f 19/204/5 20/309/5 78/205/5
f 75/207/4 76/310/4 41/208/4
